<svg width="589" height="360" viewBox="0 0 589 360" fill="none" xmlns="http://www.w3.org/2000/svg">
<path d="M1 353.435H83.8905C83.6086 353.435 83.0447 353.131 83.0447 351.916L116.878 277.465H239.522L209.918 213.65H144.79L193.847 107.292L257.284 250.116C253.055 240.999 268.41 280.504 292.808 303.295C317.207 326.086 353.707 354.195 443.365 358.753C533.022 363.311 588 303.295 588 303.295L535.559 252.395C535.559 252.395 485.656 299.496 423.911 293.419C362.166 287.341 334.254 240.999 334.254 240.999L229.372 19.1663H157.477L1 353.435Z" fill="#909090" stroke="#909090"/>
<path d="M426.577 69.3757C395.897 71.8693 337.766 111.159 331.845 140.027L292.937 58.74C320.849 36.709 322.541 33.5688 357.22 16.957C391.898 0.345205 445.185 1.00355 445.185 1.00355C506.93 1.00354 539.963 22.8648 582.208 54.1818L532.305 103.562C475.935 68.1251 457.257 66.882 426.577 69.3757Z" fill="#454545" stroke="#454545"/>
</svg>
